<?xml version="1.0" standalone="no"?>
<!DOCTYPE svg PUBLIC "-//W3C//DTD SVG 20010904//EN"
 "http://www.w3.org/TR/2001/REC-SVG-20010904/DTD/svg10.dtd">
<svg version="1.0" xmlns="http://www.w3.org/2000/svg"
 width="28.000000pt" height="28.000000pt" viewBox="0 0 28.000000 28.000000"
 preserveAspectRatio="xMidYMid meet">
<metadata>
Created by potrace 1.16, written by Peter Selinger 2001-2019
</metadata>
<g transform="translate(0.000000,28.000000) scale(0.100000,-0.100000)"
fill="#000000" stroke="none">
<path d="M72 246 c-80 -44 -81 -163 -2 -210 33 -19 106 -21 138 -2 80 44 81
163 2 210 -33 19 -106 21 -138 2z m146 -61 c2 -26 -2 -45 -8 -45 -5 0 -10 14
-10 30 0 17 -4 30 -10 30 -5 0 -10 -10 -10 -23 0 -13 -5 -28 -10 -33 -8 -8 -6
-15 5 -24 40 -33 -9 -85 -60 -62 -33 15 -33 50 0 58 27 7 34 24 10 24 -9 0
-18 7 -21 15 -4 8 -12 15 -20 15 -22 0 -16 17 14 39 17 13 43 20 72 21 l45 0
3 -45z"/>
</g>
</svg>
